<svg id="Layer_1" data-name="Layer 1" xmlns="http://www.w3.org/2000/svg" viewBox="0 0 799.84 232.4"><defs><style>.cls-1{fill:#00bfac;}</style></defs><circle class="cls-1" cx="605.44" cy="128.49" r="19.34"/><path class="cls-1" d="M522.21,111.91l.39,8.54c.73,15.89-13.25,27.48-32.23,28.34-13.76.63-24.75-5.76-25.31-17.86l0-.47c-.59-13.05,10-21.38,28.47-22.23A79.72,79.72,0,0,1,522.21,111.91Z"/><path class="cls-1" d="M760.61,107.88l.49,10.81c.92,20.11-16.76,34.76-40.77,35.86-17.42.8-31.32-7.29-32-22.6l0-.6c-.75-16.5,12.59-27,36-28.12A101,101,0,0,1,760.61,107.88Z"/><rect class="cls-1" x="227.91" y="67.85" width="64.45" height="64.45" transform="translate(76.66 -109.74) rotate(27.79)"/><rect class="cls-1" x="376.22" y="96.77" width="36.7" height="92.48" transform="translate(-23.03 101.16) rotate(-14.2)"/><path class="cls-1" d="M44,60.43,19.74,136.49c-5.07,15.93,7,33.17,21.54,30.77l98.89-16.38c14.54-2.41,20.41-22.62,10.47-36.06L103.17,50.63C86.83,28.53,52.33,34.25,44,60.43Z"/></svg>