<svg id="Layer_1" data-name="Layer 1" xmlns="http://www.w3.org/2000/svg" viewBox="0 0 866.14 525.77"><defs><style>.cls-1{fill:#00bfac;}</style></defs><path class="cls-1" d="M84.69,496.14a38.13,38.13,0,0,1-32.88-57.38l207-353.86a89.09,89.09,0,0,1,153.78,0L594.32,396A48.33,48.33,0,0,0,681,389.3l63.17-159.94a21.43,21.43,0,0,0-10.9-27.27L535.41,113.18A38.13,38.13,0,0,1,567.5,44l197.86,88.92a97.75,97.75,0,0,1,49.72,124.45L751.91,417.31a124.6,124.6,0,0,1-223.42,17.16L346.8,123.41a12.84,12.84,0,0,0-22.16,0l-207,353.85A38.1,38.1,0,0,1,84.69,496.14Z"/><circle class="cls-1" cx="335.11" cy="318.66" r="47.77"/></svg>