<svg id="Layer_1" data-name="Layer 1" xmlns="http://www.w3.org/2000/svg" viewBox="0 0 1749.39 525.77"><defs><style>.cls-1{fill:#00bfac;}</style></defs><path class="cls-1" d="M84.69,496.14a38.13,38.13,0,0,1-32.88-57.38l207-353.86a89.09,89.09,0,0,1,153.78,0L594.32,396A48.33,48.33,0,0,0,681,389.3l63.17-159.94a21.43,21.43,0,0,0-10.9-27.27L535.41,113.18A38.13,38.13,0,0,1,567.5,44l197.86,88.92a97.75,97.75,0,0,1,49.72,124.45L751.91,417.31a124.6,124.6,0,0,1-223.42,17.16L346.8,123.41a12.84,12.84,0,0,0-22.16,0l-207,353.85A38.1,38.1,0,0,1,84.69,496.14Z"/><circle class="cls-1" cx="335.11" cy="318.66" r="47.77"/><path class="cls-1" d="M912.76,281.89,965,165.32c2.81-6.23,7.83-10,14.87-10h1.2c7,0,11.86,3.82,14.67,10L1048,281.89a10.78,10.78,0,0,1,1.4,5.22A11.58,11.58,0,0,1,1037.77,299c-5.83,0-9.85-3.42-12.06-8.64L1014.25,264H945.92l-11.85,27.13A11.88,11.88,0,0,1,922.61,299a11.33,11.33,0,0,1-11.46-11.46A12.7,12.7,0,0,1,912.76,281.89Zm92-39.8-24.72-56.87-24.72,56.87Z"/><path class="cls-1" d="M1073.34,202.9a12,12,0,0,1,12.05-12.26,12.18,12.18,0,0,1,12.26,12.26v5.23c6.84-9.85,16.68-18.49,33.16-18.49,23.92,0,37.79,16.08,37.79,40.6v56.67A11.85,11.85,0,0,1,1156.54,299a12,12,0,0,1-12.26-12.06V237.67c0-16.48-8.24-25.92-22.71-25.92-14.07,0-23.92,9.84-23.92,26.33v48.83a12.16,12.16,0,0,1-24.31,0Z"/><path class="cls-1" d="M1302.24,286.91a12.16,12.16,0,0,1-24.32,0v-6.63c-7.84,11.05-18.89,19.9-36.17,19.9-24.92,0-49.24-19.9-49.24-55.07v-.4c0-35.17,23.91-55.07,49.24-55.07,17.48,0,28.54,8.64,36.17,18.69v-46a12.16,12.16,0,0,1,24.32,0ZM1217,244.71v.4c0,20.5,14.07,34,30.55,34,16.27,0,30.74-13.66,30.74-34v-.4c0-20.5-14.47-34-30.74-34C1230.89,210.74,1217,223.6,1217,244.71Z"/><path class="cls-1" d="M1325.75,267.42V267c0-22.91,17.89-34.16,43.81-34.16a88.72,88.72,0,0,1,28.54,4.42v-2.61c0-15.08-9.25-23.11-26.33-23.11a62.86,62.86,0,0,0-23.51,4.22,13.72,13.72,0,0,1-3.82.6,10.12,10.12,0,0,1-10.25-10.05,10.62,10.62,0,0,1,6.63-9.65,91.14,91.14,0,0,1,34.17-6.23c15.87,0,27.73,4.22,35.17,11.86,7.84,7.64,11.45,18.89,11.45,32.76v52.25A11.58,11.58,0,0,1,1409.76,299c-7,0-11.86-4.82-11.86-10.25v-4c-7.24,8.64-18.29,15.48-34.57,15.48C1343.43,300.18,1325.75,288.72,1325.75,267.42Zm72.75-7.64v-7.24a67.44,67.44,0,0,0-24.11-4.22c-15.68,0-24.93,6.64-24.93,17.69v.4c0,10.25,9,16.08,20.7,16.08C1386.24,282.49,1398.5,273.24,1398.5,259.78Z"/><path class="cls-1" d="M1450.75,202.9a12,12,0,0,1,12.06-12.26,12.19,12.19,0,0,1,12.26,12.26v5.23c6.83-9.85,16.68-18.49,33.16-18.49,23.91,0,37.78,16.08,37.78,40.6v56.67A11.84,11.84,0,0,1,1534,299a12,12,0,0,1-12.26-12.06V237.67c0-16.48-8.24-25.92-22.71-25.92-14.06,0-23.91,9.84-23.91,26.33v48.83a12.16,12.16,0,0,1-24.32,0Z"/><path class="cls-1" d="M1568.32,267.42V267c0-22.91,17.88-34.16,43.81-34.16a88.77,88.77,0,0,1,28.54,4.42v-2.61c0-15.08-9.25-23.11-26.33-23.11a62.92,62.92,0,0,0-23.52,4.22,13.66,13.66,0,0,1-3.81.6,10.12,10.12,0,0,1-10.25-10.05,10.62,10.62,0,0,1,6.63-9.65,91.13,91.13,0,0,1,34.16-6.23c15.88,0,27.74,4.22,35.17,11.86,7.84,7.64,11.46,18.89,11.46,32.76v52.25A11.59,11.59,0,0,1,1652.32,299c-7,0-11.85-4.82-11.85-10.25v-4c-7.24,8.64-18.29,15.48-34.57,15.48C1586,300.18,1568.32,288.72,1568.32,267.42Zm72.75-7.64v-7.24a67.46,67.46,0,0,0-24.12-4.22c-15.68,0-24.92,6.64-24.92,17.69v.4c0,10.25,9,16.08,20.7,16.08C1628.81,282.49,1641.07,273.24,1641.07,259.78Z"/><path class="cls-1" d="M909.5,355.8h13.93q9.81,0,14.19,2.93c2.92,1.95,4.39,5,4.39,9.27a10.74,10.74,0,0,1-2.45,7.24,11.82,11.82,0,0,1-7.13,3.69v.33q11.22,1.94,11.23,11.81,0,6.6-4.47,10.31t-12.49,3.71H909.5Zm5.73,21.1h9.44q6.08,0,8.74-1.9t2.66-6.42c0-2.77-1-4.76-3-6s-5.12-1.84-9.44-1.84h-8.43Zm0,4.86V400.2h10.29q6,0,9-2.31c2-1.53,3-3.95,3-7.23,0-3.06-1-5.3-3.09-6.74s-5.18-2.16-9.39-2.16Z"/><path class="cls-1" d="M977.17,367.46a21.94,21.94,0,0,1,4.42.41l-.78,5.19a19,19,0,0,0-4-.51,9.86,9.86,0,0,0-7.67,3.65,13.28,13.28,0,0,0-3.18,9.07v19.82h-5.6V368.14h4.62l.64,6.84h.27a16.25,16.25,0,0,1,4.95-5.56A11.22,11.22,0,0,1,977.17,367.46Z"/><path class="cls-1" d="M1018.13,405.09l-1.11-5.26h-.27a15.59,15.59,0,0,1-5.51,4.71,16.86,16.86,0,0,1-6.87,1.23c-3.66,0-6.53-.95-8.61-2.83s-3.12-4.58-3.12-8.06q0-11.2,17.9-11.74l6.28-.2v-2.29q0-4.35-1.88-6.43c-1.24-1.38-3.24-2.07-6-2.07A24.31,24.31,0,0,0,998.51,375l-1.72-4.28a26.57,26.57,0,0,1,6-2.33,26.06,26.06,0,0,1,6.53-.84q6.6,0,9.79,2.93t3.19,9.41v25.22Zm-12.64-3.94q5.22,0,8.21-2.87t3-8v-3.34l-5.6.24q-6.68.22-9.62,2.07a6.24,6.24,0,0,0-3,5.71,5.76,5.76,0,0,0,1.83,4.62A7.63,7.63,0,0,0,1005.49,401.15Z"/><path class="cls-1" d="M1066,405.09v-23.9c0-3-.69-5.26-2.06-6.75s-3.52-2.22-6.44-2.22q-5.8,0-8.5,3.13t-2.7,10.35v19.39h-5.59V368.14h4.55l.91,5.06h.27a11.39,11.39,0,0,1,4.82-4.24,15.67,15.67,0,0,1,6.91-1.5q6.67,0,10,3.22t3.37,10.3v24.11Z"/><path class="cls-1" d="M1115.16,400.14h-.3q-3.88,5.63-11.6,5.63-7.24,0-11.28-5t-4-14.09q0-9.15,4-14.2t11.26-5.06q7.52,0,11.53,5.46h.44l-.24-2.66-.13-2.6v-15h5.6v52.46h-4.56Zm-11.19.94q5.73,0,8.31-3.12t2.58-10.06v-1.18q0-7.86-2.61-11.22t-8.35-3.35a8.59,8.59,0,0,0-7.54,3.83q-2.61,3.82-2.61,10.8t2.6,10.69A8.78,8.78,0,0,0,1104,401.08Z"/><path class="cls-1" d="M1138.76,358.12a3.69,3.69,0,0,1,.94-2.81,3.29,3.29,0,0,1,2.36-.9,3.33,3.33,0,0,1,2.33.91,3.66,3.66,0,0,1,1,2.8,3.73,3.73,0,0,1-1,2.82,3.42,3.42,0,0,1-4.69,0A3.8,3.8,0,0,1,1138.76,358.12Zm6.07,47h-5.6V368.14h5.6Z"/><path class="cls-1" d="M1188.89,405.09v-23.9c0-3-.68-5.26-2.05-6.75s-3.52-2.22-6.44-2.22q-5.81,0-8.5,3.13t-2.7,10.35v19.39h-5.6V368.14h4.56l.91,5.06h.27a11.33,11.33,0,0,1,4.82-4.24,15.67,15.67,0,0,1,6.91-1.5q6.67,0,10,3.22t3.37,10.3v24.11Z"/><path class="cls-1" d="M1243.14,368.14v3.54l-6.84.81a11.47,11.47,0,0,1,1.68,3.08,11.68,11.68,0,0,1,.75,4.3,10.94,10.94,0,0,1-3.71,8.67q-3.72,3.24-10.19,3.23a17,17,0,0,1-3.1-.27q-3.57,1.89-3.57,4.76a2.41,2.41,0,0,0,1.24,2.24,9.06,9.06,0,0,0,4.29.73h6.54q6,0,9.22,2.53a8.76,8.76,0,0,1,3.22,7.35,10.48,10.48,0,0,1-4.92,9.35q-4.92,3.23-14.37,3.22-7.25,0-11.18-2.69a8.73,8.73,0,0,1-3.92-7.62,8.6,8.6,0,0,1,2.15-5.84,11.06,11.06,0,0,1,6.07-3.34,5.8,5.8,0,0,1-2.37-2,5.23,5.23,0,0,1-1-3.13,5.94,5.94,0,0,1,1.08-3.54,11.32,11.32,0,0,1,3.4-2.94,9.92,9.92,0,0,1-4.67-4,11.82,11.82,0,0,1-1.8-6.47q0-6.08,3.64-9.36t10.32-3.29a18.7,18.7,0,0,1,5.22.68Zm-29.47,43.16a5,5,0,0,0,2.53,4.55,14,14,0,0,0,7.25,1.55q7,0,10.44-2.11a6.44,6.44,0,0,0,3.39-5.71q0-3-1.86-4.17c-1.24-.77-3.56-1.16-7-1.16h-6.71a8.83,8.83,0,0,0-5.93,1.82A6.5,6.5,0,0,0,1213.67,411.3Zm3-31.33a7.53,7.53,0,0,0,2.19,5.87,8.72,8.72,0,0,0,6.1,2q8.19,0,8.2-8,0-8.33-8.3-8.33a8.21,8.21,0,0,0-6.07,2.13C1217.41,375.08,1216.71,377.19,1216.71,380Z"/><path class="cls-1" d="M1280.36,392.31a13.26,13.26,0,0,1,2.34-7.75q2.34-3.37,8.41-6.81a40.17,40.17,0,0,1-3.89-4.86,16.66,16.66,0,0,1-1.64-3.44,11.58,11.58,0,0,1-.6-3.71,9.84,9.84,0,0,1,3.3-7.89q3.3-2.84,9.21-2.83,5.46,0,8.59,2.82a10,10,0,0,1,3.14,7.84,10.81,10.81,0,0,1-2.29,6.65,26,26,0,0,1-7.59,6.19l13.72,13.19a16.27,16.27,0,0,0,3-4.91,41.91,41.91,0,0,0,1.91-6.15h5.66q-2.3,9.64-6.91,14.63l10.08,9.81h-7.72l-6.24-6a23.89,23.89,0,0,1-17.26,6.68c-4.84,0-8.58-1.19-11.25-3.58S1280.36,396.52,1280.36,392.31Zm15.37,8.43a18.61,18.61,0,0,0,13.49-5.19l-14.74-14.3a32.65,32.65,0,0,0-5.29,3.8,10,10,0,0,0-2.29,3.22,9.67,9.67,0,0,0-.74,3.91,7.92,7.92,0,0,0,2.61,6.25A10.12,10.12,0,0,0,1295.73,400.74Zm-5.22-35.13a8.72,8.72,0,0,0,1.21,4.43,26.68,26.68,0,0,0,4.15,5.08,22.24,22.24,0,0,0,6.05-4.67,7.76,7.76,0,0,0,1.7-4.94,5.57,5.57,0,0,0-1.73-4.23,6.47,6.47,0,0,0-4.64-1.64,7.16,7.16,0,0,0-4.87,1.62A5.45,5.45,0,0,0,1290.51,365.61Z"/><path class="cls-1" d="M1386.59,360.21q-8.11,0-12.83,5.41t-4.7,14.82q0,9.69,4.54,15t12.93,5.28a43.94,43.94,0,0,0,11.76-1.86v5a36.23,36.23,0,0,1-12.64,1.92q-10.89,0-16.81-6.61t-5.92-18.78a29.69,29.69,0,0,1,2.85-13.36,20.45,20.45,0,0,1,8.23-8.83,24.88,24.88,0,0,1,12.66-3.1,30.56,30.56,0,0,1,13.56,2.83l-2.43,4.92A26.2,26.2,0,0,0,1386.59,360.21Z"/><path class="cls-1" d="M1432,367.46a21.87,21.87,0,0,1,4.42.41l-.77,5.19a19,19,0,0,0-4-.51,9.84,9.84,0,0,0-7.67,3.65,13.24,13.24,0,0,0-3.19,9.07v19.82h-5.6V368.14h4.62l.64,6.84h.27a16.38,16.38,0,0,1,5-5.56A11.19,11.19,0,0,1,1432,367.46Z"/><path class="cls-1" d="M1465.82,405.77q-8.19,0-12.93-5t-4.74-13.86q0-8.94,4.4-14.2a14.66,14.66,0,0,1,11.82-5.26q6.95,0,11,4.57t4.05,12.06v3.54H1454q.16,6.51,3.29,9.88t8.78,3.37a29.7,29.7,0,0,0,11.81-2.5v5a29.13,29.13,0,0,1-5.62,1.84A31.53,31.53,0,0,1,1465.82,405.77Zm-1.52-33.62a9.14,9.14,0,0,0-7.09,2.9,13.3,13.3,0,0,0-3.12,8h19.32q0-5.29-2.36-8.12A8.34,8.34,0,0,0,1464.3,372.15Z"/><path class="cls-1" d="M1518.59,405.09l-1.12-5.26h-.27a15.51,15.51,0,0,1-5.51,4.71,16.81,16.81,0,0,1-6.86,1.23c-3.67,0-6.54-.95-8.62-2.83s-3.12-4.58-3.12-8.06q0-11.2,17.91-11.74l6.27-.2v-2.29q0-4.35-1.87-6.43c-1.25-1.38-3.24-2.07-6-2.07A24.35,24.35,0,0,0,1499,375l-1.72-4.28a26.65,26.65,0,0,1,6-2.33,26,26,0,0,1,6.52-.84q6.62,0,9.8,2.93t3.18,9.41v25.22Zm-12.65-3.94c3.49,0,6.22-1,8.21-2.87s3-4.58,3-8v-3.34l-5.6.24q-6.68.22-9.63,2.07a6.24,6.24,0,0,0-3,5.71,5.74,5.74,0,0,0,1.84,4.62A7.6,7.6,0,0,0,1505.94,401.15Z"/><path class="cls-1" d="M1553.11,401.15a17.73,17.73,0,0,0,2.86-.22,18.51,18.51,0,0,0,2.2-.46v4.29a10.34,10.34,0,0,1-2.68.72,20.38,20.38,0,0,1-3.19.29q-10.72,0-10.72-11.3v-22h-5.3v-2.7l5.3-2.33,2.36-7.89h3.23v8.57h10.73v4.35h-10.73v21.75a7.46,7.46,0,0,0,1.59,5.12A5.52,5.52,0,0,0,1553.11,401.15Z"/><path class="cls-1" d="M1572,358.12a3.7,3.7,0,0,1,1-2.81,3.29,3.29,0,0,1,2.36-.9,3.35,3.35,0,0,1,2.33.91,3.66,3.66,0,0,1,1,2.8,3.72,3.72,0,0,1-1,2.82,3.28,3.28,0,0,1-2.33.93,3.23,3.23,0,0,1-2.36-.93A3.8,3.8,0,0,1,1572,358.12Zm6.07,47h-5.59V368.14h5.59Z"/><path class="cls-1" d="M1604.92,405.09l-14-36.95h6l7.95,21.91a102,102,0,0,1,3.17,10h.27a75.22,75.22,0,0,1,2.35-7.41q2-5.61,8.85-24.49h6l-14,36.95Z"/><path class="cls-1" d="M1653.94,405.77q-8.19,0-12.93-5t-4.74-13.86q0-8.94,4.41-14.2a14.62,14.62,0,0,1,11.81-5.26q6.94,0,11,4.57t4,12.06v3.54h-25.46q.18,6.51,3.29,9.88t8.79,3.37a29.65,29.65,0,0,0,11.8-2.5v5a29.13,29.13,0,0,1-5.62,1.84A31.53,31.53,0,0,1,1653.94,405.77Zm-1.51-33.62a9.15,9.15,0,0,0-7.1,2.9,13.3,13.3,0,0,0-3.12,8h19.32q0-5.29-2.36-8.12A8.32,8.32,0,0,0,1652.43,372.15Z"/></svg>